HIERARCHY
ROOT Hips
{
	OFFSET 0.000000 0.000000 0.000000
	CHANNELS 6 Xposition Yposition Zposition Xrotation Yrotation Zrotation
	JOINT LeftUpLeg_virtual
	{
		OFFSET 0.000000 0.000000 0.000000
		CHANNELS 3 Xrotation Yrotation Zrotation
		JOINT LeftUpLeg
		{
			OFFSET 13.026900 -6.336304 -1.092800
			CHANNELS 3 Xrotation Yrotation Zrotation
			JOINT LeftLeg
			{
				OFFSET 0.524474 -46.096886 9.782700
				CHANNELS 3 Xrotation Yrotation Zrotation
				JOINT LeftFoot
				{
					OFFSET -0.524474 -53.427422 -12.948200
					CHANNELS 3 Xrotation Yrotation Zrotation
					JOINT LeftToeBase
					{
						OFFSET 0.192200 -14.009700 16.364100
						CHANNELS 3 Xrotation Yrotation Zrotation
						JOINT LeftToe_End
						{
							OFFSET -1.784700 -0.561700 9.474800
							CHANNELS 3 Xrotation Yrotation Zrotation
							End Site
							{
								OFFSET 0 0 0
							}
						}
					}
				}
			}
		}
	}
	JOINT RightUpLeg_virtual
	{
		OFFSET 0.000000 0.000000 0.000000
		CHANNELS 3 Xrotation Yrotation Zrotation
		JOINT RightUpLeg
		{
			OFFSET -12.883000 -6.336304 -1.092800
			CHANNELS 3 Xrotation Yrotation Zrotation
			JOINT RightLeg
			{
				OFFSET -0.524587 -46.096825 9.782800
				CHANNELS 3 Xrotation Yrotation Zrotation
				JOINT RightFoot
				{
					OFFSET 0.524587 -53.427383 -12.948300
					CHANNELS 3 Xrotation Yrotation Zrotation
					JOINT RightToeBase
					{
						OFFSET -0.192200 -14.009700 16.364100
						CHANNELS 3 Xrotation Yrotation Zrotation
						JOINT RightToe_End
						{
							OFFSET 1.784700 -0.561700 9.474800
							CHANNELS 3 Xrotation Yrotation Zrotation
							End Site
							{
								OFFSET 0 0 0
							}
						}
					}
				}
			}
		}
	}
	JOINT Spine_virtual
	{
		OFFSET 0.000000 0.000000 0.000000
		CHANNELS 3 Xrotation Yrotation Zrotation
		JOINT Spine
		{
			OFFSET 0.072000 7.257294 -0.789700
			CHANNELS 3 Xrotation Yrotation Zrotation
			JOINT Spine1
			{
				OFFSET 0.000000 12.508769 -0.658067
				CHANNELS 3 Xrotation Yrotation Zrotation
				JOINT Spine1_split
				{
					OFFSET 0.000000 12.508769 -0.658067
					CHANNELS 3 Xrotation Yrotation Zrotation
					JOINT Spine2
					{
						OFFSET 0.000000 12.508769 -0.658067
						CHANNELS 3 Xrotation Yrotation Zrotation
						JOINT Neck_virtual
						{
							OFFSET 0.000000 0.000000 0.000000
							CHANNELS 3 Xrotation Yrotation Zrotation
							JOINT Neck
							{
								OFFSET 0.000000 14.033295 7.520400
								CHANNELS 3 Xrotation Yrotation Zrotation
								JOINT Head
								{
									OFFSET 0.000000 8.198502 5.703100
									CHANNELS 3 Xrotation Yrotation Zrotation
									JOINT HeadTop_End
									{
										OFFSET 0.000000 17.760803 13.332701
										CHANNELS 3 Xrotation Yrotation Zrotation
										End Site
										{
											OFFSET 0 0 0
										}
									}
								}
							}
						}
						JOINT LeftShoulder_virtual
						{
							OFFSET 0.000000 0.000000 0.000000
							CHANNELS 3 Xrotation Yrotation Zrotation
							JOINT LeftShoulder
							{
								OFFSET 6.292450 5.785301 -0.669000
								CHANNELS 3 Xrotation Yrotation Zrotation
								JOINT LeftShoulder_split
								{
									OFFSET 6.292450 5.785301 -0.669000
									CHANNELS 3 Xrotation Yrotation Zrotation
									JOINT LeftArm
									{
										OFFSET 13.907140 -6.093903 1.965100
										CHANNELS 3 Xrotation Yrotation Zrotation
										JOINT LeftForeArm
										{
											OFFSET 34.140198 0.000000 0.000000
											CHANNELS 3 Xrotation Yrotation Zrotation
											JOINT LeftHand
											{
												OFFSET 40.960209 0.000000 0.000000
												CHANNELS 3 Xrotation Yrotation Zrotation
												End Site
												{
													OFFSET 0 0 0
												}
											}
										}
									}
								}
							}
						}
						JOINT RightShoulder_virtual
						{
							OFFSET 0.000000 0.000000 0.000000
							CHANNELS 3 Xrotation Yrotation Zrotation
							JOINT RightShoulder
							{
								OFFSET -6.292450 5.785301 -0.669000
								CHANNELS 3 Xrotation Yrotation Zrotation
								JOINT RightShoulder_split
								{
									OFFSET -6.292450 5.785301 -0.669000
									CHANNELS 3 Xrotation Yrotation Zrotation
									JOINT RightArm
									{
										OFFSET -13.907140 -6.093903 1.965100
										CHANNELS 3 Xrotation Yrotation Zrotation
										JOINT RightForeArm
										{
											OFFSET -34.140198 0.000000 0.000000
											CHANNELS 3 Xrotation Yrotation Zrotation
											JOINT RightHand
											{
												OFFSET -40.960209 0.000000 0.000000
												CHANNELS 3 Xrotation Yrotation Zrotation
												End Site
												{
													OFFSET 0 0 0
												}
											}
										}
									}
								}
							}
						}
					}
				}
			}
		}
	}
}
MOTION
Frames: 6
Frame Time: 0.03333333
-1.478375 101.883698 0.327667 0.000000 0.000000 0.000000 14.622016 -57.436283 13.442430 -45.800773 10.389834 24.726048 41.984001 -8.208063 -5.990155 0.211258 -2.514657 -1.002673 1.278899 -0.115977 -0.104970 0.000000 0.000000 0.000000 15.597183 -57.981093 14.377958 -31.828856 -8.013934 -17.507885 46.199236 5.577321 -1.249580 -24.462970 -6.090104 10.586916 5.769191 0.158758 0.655000 0.000000 0.000000 0.000000 15.838367 -60.023941 13.813433 5.921774 1.310175 -3.191904 -4.545355 5.269061 -3.859737 0.810607 -2.230141 0.478049 0.000000 0.000000 0.000000 -2.554752 4.751024 -3.274670 -15.508786 7.753971 8.376762 3.382851 34.370946 2.313563 0.000000 0.000000 0.000000 -3.223913 5.133264 -3.766060 -29.481798 6.444816 6.159987 -7.272995 6.051488 -6.858254 33.013193 -10.480412 -42.219694 -26.076928 -86.050972 -26.276511 0.000000 0.000000 0.000000 -3.777733 4.382246 -3.696245 1.865683 16.304362 11.250543 -5.724457 0.666940 -1.110440 12.965511 17.462340 59.126926 5.847228 67.108132 -8.226574 0.000000 0.000000 0.000000 
-1.400424 101.927818 0.602837 0.000000 0.000000 0.000000 14.596102 -57.309877 13.346184 -45.954978 10.961066 24.968132 41.546917 -7.951886 -6.257762 0.014546 -2.608049 -0.893265 1.300905 -0.130520 -0.072390 0.000000 0.000000 0.000000 15.761247 -58.176232 14.384110 -31.515975 -8.030583 -17.422230 46.118151 5.537123 -1.240155 -24.689804 -6.147210 10.224491 5.903464 0.137144 0.713435 0.000000 0.000000 0.000000 16.178551 -60.105391 14.047169 5.935521 1.355947 -3.292910 -4.522586 5.289018 -3.916402 1.054662 -2.042055 0.434615 0.000000 0.000000 0.000000 -2.398354 4.818761 -3.377962 -14.964255 8.420050 8.127995 3.140925 34.245701 2.567592 0.000000 0.000000 0.000000 -2.924656 5.153835 -3.766268 -29.462892 5.928832 6.152443 -6.923434 5.105610 -6.399159 33.265326 -11.652348 -42.498001 -23.431869 -85.296304 -23.337477 0.000000 0.000000 0.000000 -3.638971 4.383785 -3.779166 1.909939 16.204059 11.587039 -6.399413 1.124297 -0.661162 13.783868 17.133866 58.965064 5.125525 66.975797 -7.509885 0.000000 0.000000 0.000000 
-1.326151 102.040237 0.761623 0.000000 0.000000 0.000000 14.532611 -57.450155 13.154444 -45.804358 11.674929 25.287720 40.793209 -7.684083 -6.499459 -0.256537 -2.630487 -0.807592 1.452756 -0.152754 -0.109434 0.000000 0.000000 0.000000 15.741940 -58.326469 14.168268 -31.032797 -8.157713 -17.221284 45.968676 5.535769 -1.255262 -25.108163 -6.249142 9.827519 5.682996 0.100499 0.778965 0.000000 0.000000 0.000000 16.110753 -59.977489 13.981055 6.074302 1.437209 -3.397695 -4.492219 5.458504 -4.057491 1.122497 -1.888289 0.509264 0.000000 0.000000 0.000000 -2.310016 5.011450 -3.613318 -14.479767 9.172058 7.850520 2.650067 34.118981 3.001979 0.000000 0.000000 0.000000 -2.712737 5.364874 -3.865420 -29.427768 4.894294 5.850980 -6.262202 4.087010 -6.013210 33.610552 -13.106998 -42.529153 -16.590482 -83.199716 -16.194754 0.000000 0.000000 0.000000 -3.349385 4.520433 -3.988010 1.912971 15.817215 11.913620 -6.528612 1.305844 -0.622381 14.886092 17.836392 58.129657 3.987117 67.160540 -6.629329 0.000000 0.000000 0.000000 
-1.268151 102.158699 0.742340 0.000000 0.000000 0.000000 14.381911 -57.667417 12.855308 -45.466322 12.355152 25.607516 40.097507 -7.470425 -6.682619 -0.554422 -2.593018 -0.740442 1.735230 -0.179433 -0.220435 0.000000 0.000000 0.000000 15.565118 -58.382913 13.822258 -30.549817 -8.311042 -17.026231 45.616617 5.593162 -1.280711 -25.615923 -6.354386 9.523718 5.210142 0.050626 0.836962 0.000000 0.000000 0.000000 15.743537 -59.595777 13.688855 6.310891 1.468695 -3.445288 -4.440510 5.726136 -4.218279 0.881103 -1.740047 0.592763 0.000000 0.000000 0.000000 -2.300237 5.253872 -3.863328 -14.196881 10.028815 7.569760 2.153453 34.122085 3.306938 0.000000 0.000000 0.000000 -2.557040 5.663315 -4.011735 -29.372006 3.577468 5.312298 -5.782847 3.291723 -5.977078 33.816898 -14.512129 -42.559667 -11.388700 -79.988099 -10.662054 0.000000 0.000000 0.000000 -2.941807 4.748099 -4.244945 1.891399 15.250026 12.178102 -6.389290 1.229189 -0.787386 16.276430 19.307027 56.505858 2.583737 67.564129 -5.735200 0.000000 0.000000 0.000000 
-1.273514 102.293854 0.562721 0.000000 0.000000 0.000000 14.054340 -57.847871 12.405930 -45.123553 12.861144 25.907268 39.727795 -7.303480 -6.839880 -0.771451 -2.534565 -0.685870 2.051934 -0.206297 -0.376810 0.000000 0.000000 0.000000 15.140345 -58.296047 13.356306 -30.122958 -8.424568 -16.889610 45.099439 5.735231 -1.308112 -26.006005 -6.393066 9.455483 4.652300 -0.004281 0.878034 0.000000 0.000000 0.000000 15.142290 -58.932921 13.175020 6.594024 1.369326 -3.391415 -4.356021 6.013221 -4.339994 0.678264 -1.687523 0.367141 0.000000 0.000000 0.000000 -2.345044 5.458484 -4.001666 -13.932806 11.043387 7.293764 1.846325 34.364881 3.212485 0.000000 0.000000 0.000000 -2.473740 5.935402 -4.137696 -29.312559 2.172161 4.548654 -5.878333 2.967249 -6.397375 33.879699 -15.649032 -42.766994 -8.694048 -76.408780 -7.575606 0.000000 0.000000 0.000000 -2.505881 4.974102 -4.443104 1.902755 14.671895 12.344124 -6.103396 1.098607 -0.974622 17.935474 21.310648 54.089900 1.036513 68.013535 -4.848420 0.000000 0.000000 0.000000 
-1.382805 102.373810 0.265339 0.000000 0.000000 0.000000 13.481959 -57.843923 11.775609 -45.009242 13.095700 26.238940 39.812882 -7.176575 -7.018813 -0.774473 -2.527252 -0.639532 2.191888 -0.235752 -0.521617 0.000000 0.000000 0.000000 14.500391 -58.166041 12.775850 -29.739443 -8.487485 -16.791714 44.579214 5.911866 -1.306887 -26.225724 -6.373864 9.601604 4.197437 -0.057896 0.910810 0.000000 0.000000 0.000000 14.381375 -58.106031 12.502391 6.846684 1.065437 -3.208514 -4.284034 6.243519 -4.391183 0.697329 -1.457772 0.074937 0.000000 0.000000 0.000000 -2.446497 5.573013 -3.956652 -13.550903 12.215581 7.075028 1.960738 34.847325 2.572077 0.000000 0.000000 0.000000 -2.411482 6.120725 -4.195060 -29.260298 0.837728 3.687462 -6.336419 3.065621 -7.154124 33.970024 -16.328460 -43.186087 -7.397804 -73.276879 -5.891281 0.000000 0.000000 0.000000 -2.080743 5.152884 -4.516927 1.991139 14.262267 12.325146 -5.780550 1.093453 -1.048595 19.832706 23.632777 51.006606 -0.515283 68.363377 -3.985953 0.000000 0.000000 0.000000 
